#!OML:ASF F:\VICON\USERDATA\INSTALL\rory3\rory3.ASF
:FULLY-SPECIFIED
:DEGREES
95
root -0.121644 18.0544 -14.787 14.0889 -1.82998 3.21973
lowerback 23.5178 0.421396 -2.9743
upperback 3.72814 -0.338868 -1.4419
thorax -9.00208 -0.0903001 0.220251
lowerneck -13.2925 -3.22605 -8.03474
upperneck -6.2184 -3.13284 8.14846
head 0.608916 -1.30798 3.9971
rclavicle -1.44119e-015 -5.86415e-015
rhumerus -33.2103 2.31686 -79.0411
rradius 30.3022
rwrist 13.4481
rhand -30.662 1.85869
rfingers 7.12502
rthumb -3.95674 -28.0843
lclavicle -1.44119e-015 -5.86415e-015
lhumerus -34.059 -0.0956997 78.6445
lradius 32.3099
lwrist 1.92128
lhand -21.4052 23.953
lfingers 7.12502
lthumb 4.98307 53.8745
rfemur -38.1186 12.4206 11.4142
rtibia 45.5165
rfoot -22.0023 -12.4947
rtoes -1.35434
lfemur -37.4947 -1.51142 -21.6771
ltibia 42.3787
lfoot -15.9592 3.55577
ltoes -5.39249
96
root -0.115778 18.029 -14.8115 14.4034 -1.89027 3.32223
lowerback 24.0006 0.459168 -3.09145
upperback 3.76547 -0.339931 -1.45075
thorax -9.214 -0.084894 0.276858
lowerneck -13.3127 -3.22525 -8.01147
upperneck -6.57924 -3.11811 8.1404
head 0.489902 -1.30071 3.99092
rclavicle -2.28602e-015 4.37326e-015
rhumerus -33.3583 2.00075 -78.8216
rradius 30.0916
rwrist 13.2157
rhand -30.1376 2.05857
rfingers 7.12502
rthumb -3.45037 -27.8932
lclavicle -2.28602e-015 4.37326e-015
lhumerus -34.1449 0.0431939 78.3881
lradius 31.9344
lwrist 1.80029
lhand -20.9001 24.3683
lfingers 7.12502
lthumb 5.47083 54.2777
rfemur -38.8742 12.302 11.1947
rtibia 46.0338
rfoot -22.132 -12.5508
rtoes -1.99123
lfemur -38.1389 -1.43298 -21.8166
ltibia 42.7247
lfoot -16.0161 3.44404
ltoes -5.03457
97
root -0.108371 18.0054 -14.8331 14.7127 -1.90954 3.43464
lowerback 24.4184 0.459831 -3.15901
upperback 3.83691 -0.374906 -1.47479
thorax -9.35236 -0.0981692 0.299372
lowerneck -13.3554 -3.19893 -8.01336
upperneck -6.91568 -3.06475 8.17091
head 0.381186 -1.27255 4.00596
rclavicle -5.41688e-015 -1.98785e-015
rhumerus -33.4973 1.70448 -78.6348
rradius 29.7526
rwrist 13.3557
rhand -29.9888 2.62096
rfingers 7.12502
rthumb -3.3066 -27.3331
lclavicle -5.41688e-015 -1.98785e-015
lhumerus -34.202 0.0891762 78.1529
lradius 31.5309
lwrist 1.75557
lhand -20.036 24.8512
lfingers 7.12502
lthumb 6.30511 54.7374
rfemur -39.5695 12.162 10.9629
rtibia 46.5363
rfoot -22.3428 -12.5024
rtoes -2.28317
lfemur -38.7575 -1.40633 -21.9599
ltibia 43.0652
lfoot -16.1028 3.31646
ltoes -4.79145
98
root -0.0986594 17.9845 -14.8483 15.0439 -1.91276 3.56633
lowerback 24.7142 0.446664 -3.21399
upperback 3.95615 -0.416304 -1.48466
thorax -9.37212 -0.116353 0.333206
lowerneck -13.5023 -3.18598 -8.03411
upperneck -7.24076 -3.02016 8.17015
head 0.294335 -1.24672 4.01269
rclavicle 1.04362e-015 3.97569e-015
rhumerus -33.62 1.60433 -78.4845
rradius 29.3533
rwrist 13.6575
rhand -29.9697 2.45819
rfingers 7.12502
rthumb -3.28822 -27.4962
lclavicle 1.04362e-015 3.97569e-015
lhumerus -34.2051 0.19066 77.9744
lradius 31.2556
lwrist 1.49575
lhand -19.7785 25.2052
lfingers 7.12502
lthumb 6.55361 55.0838
rfemur -40.2708 12.0032 10.7132
rtibia 47.0824
rfoot -22.5783 -12.517
rtoes -2.62036
lfemur -39.3622 -1.40563 -22.1343
ltibia 43.3891
lfoot -16.1764 3.17608
ltoes -4.06643
99
root -0.0918536 17.962 -14.8685 15.4176 -1.85128 3.73094
lowerback 25.018 0.425699 -3.32545
upperback 4.05 -0.479925 -1.45964
thorax -9.42221 -0.141822 0.445399
lowerneck -13.6976 -3.20896 -8.08094
upperneck -7.4828 -3.02092 8.1417
head 0.247062 -1.24251 4.01169
rclavicle 8.94531e-016 -3.47873e-015
rhumerus -33.8425 1.66935 -78.3701
rradius 29.1382
rwrist 13.8789
rhand -29.5081 0.602589
rfingers 7.12502
rthumb -2.84243 -29.3582
lclavicle 8.94531e-016 -3.47873e-015
lhumerus -34.1564 0.312352 77.858
lradius 30.935
lwrist 1.31837
lhand -19.7834 25.7745
lfingers 7.12502
lthumb 6.54888 55.6532
rfemur -41.0486 11.8816 10.4136
rtibia 47.6911
rfoot -22.8365 -12.61
rtoes -2.65356
lfemur -40.0248 -1.40801 -22.3361
ltibia 43.6856
lfoot -16.1519 2.98908
ltoes -3.37404
100
root -0.0862454 17.9368 -14.8924 15.8808 -1.76859 4.18424
lowerback 25.3513 0.414365 -3.62154
upperback 4.07226 -0.596336 -1.54799
thorax -9.56487 -0.185536 0.554757
lowerneck -13.7548 -3.25275 -8.05089
upperneck -7.79541 -3.06731 8.10585
head 0.154765 -1.26578 3.99115
rclavicle 1.78906e-015 1.96797e-014
rhumerus -34.0292 1.50732 -78.2455
rradius 28.907
rwrist 13.9626
rhand -28.8035 -0.943284
rfingers 7.12502
rthumb -2.16189 -30.9121
lclavicle 1.78906e-015 1.96797e-014
lhumerus -34.1365 0.332517 77.6974
lradius 30.6225
lwrist 1.28386
lhand -19.2269 26.4138
lfingers 7.12502
lthumb 7.08617 56.2752
rfemur -41.9649 11.663 9.77889
rtibia 48.3196
rfoot -23.051 -12.767
rtoes -2.95566
lfemur -40.8357 -1.5055 -22.8327
ltibia 44.0252
lfoot -16.1142 2.74619
ltoes -2.56119
101
root -0.0794564 17.9033 -14.9122 16.2559 -1.66381 4.78162
lowerback 25.7837 0.383613 -3.9651
upperback 4.10424 -0.765287 -1.70663
thorax -9.74519 -0.252034 0.63117
lowerneck -13.5283 -3.21119 -8.18658
upperneck -8.33769 -2.98185 8.30219
head -0.0649559 -1.22124 4.09799
rclavicle 1.13804e-014 3.08613e-014
rhumerus -34.146 1.19373 -78.1178
rradius 28.5972
rwrist 13.8997
rhand -30.2595 0.935097
rfingers 7.12502
rthumb -3.56806 -29.0148
lclavicle 1.13804e-014 3.08613e-014
lhumerus -34.1167 0.36923 77.4817
lradius 30.2856
lwrist 1.00177
lhand -18.9723 26.6814
lfingers 7.12502
lthumb 7.3319 56.5344
rfemur -42.7501 11.3362 9.03176
rtibia 48.9461
rfoot -23.2942 -12.8357
rtoes -3.19402
lfemur -41.5665 -1.65494 -23.4923
ltibia 44.418
lfoot -16.144 2.54971
ltoes -2.52519
102
root -0.0736889 17.873 -14.9295 16.436 -1.44028 4.53629
lowerback 26.3003 0.284541 -3.54114
upperback 4.20405 -0.79053 -1.62821
thorax -9.90434 -0.274424 0.485461
lowerneck -13.2976 -3.17678 -8.37069
upperneck -8.78677 -2.90296 8.51632
head -0.253168 -1.17892 4.22133
rclavicle -5.46658e-015 -2.95692e-014
rhumerus -34.376 0.913567 -77.972
rradius 28.3856
rwrist 13.9175
rhand -33.0317 4.58946
rfingers 7.12502
rthumb -6.24481 -25.2985
lclavicle -5.46658e-015 -2.95692e-014
lhumerus -34.1868 0.396257 77.2995
lradius 30.0305
lwrist 0.721386
lhand -18.9636 26.7071
lfingers 7.12502
lthumb 7.34026 56.5598
rfemur -43.2049 11.3028 9.27122
rtibia 49.4817
rfoot -23.6118 -12.9914
rtoes -3.44981
lfemur -42.128 -1.61289 -23.2479
ltibia 44.8939
lfoot -16.1769 2.44951
ltoes -3.51064
103
root -0.0694271 17.8492 -14.9428 16.6043 -1.2745 4.20605
lowerback 26.7691 0.214125 -3.15735
upperback 4.28529 -0.776551 -1.48354
thorax -10.0581 -0.276458 0.423606
lowerneck -13.5591 -3.23133 -8.23811
upperneck -8.70513 -2.98416 8.31333
head -0.181401 -1.22019 4.11447
rclavicle 6.60959e-015 1.54058e-014
rhumerus -34.6706 0.816134 -77.8269
rradius 28.2097
rwrist 14.0509
rhand -33.0987 4.64256
rfingers 7.12502
rthumb -6.30945 -25.2435
lclavicle 6.60959e-015 1.54058e-014
lhumerus -34.3599 0.456033 77.1742
lradius 29.8768
lwrist 0.612468
lhand -18.7407 26.9435
lfingers 7.12502
lthumb 7.55541 56.7886
rfemur -43.672 11.4187 9.56701
rtibia 49.9695
rfoot -23.9393 -13.2452
rtoes -3.99109
lfemur -42.646 -1.50012 -22.9068
ltibia 45.3666
lfoot -16.3321 2.31602
ltoes -4.06929
104
root -0.066967 17.8221 -14.9561 16.876 -1.09019 4.20866
lowerback 27.1541 0.142653 -3.02916
upperback 4.37826 -0.841008 -1.45374
thorax -10.1501 -0.308849 0.406979
lowerneck -13.9022 -3.29784 -8.00699
upperneck -8.70986 -3.0858 8.09813
head -0.125745 -1.27327 3.98298
rclavicle -3.23025e-015 8.97016e-015
rhumerus -34.7192 0.642345 -77.7575
rradius 27.8491
rwrist 14.2655
rhand -31.3121 2.18314
rfingers 7.12502
rthumb -4.58447 -27.7473
lclavicle -3.23025e-015 8.97016e-015
lhumerus -34.3416 0.394481 77.0486
lradius 29.6055
lwrist 0.52621
lhand -18.8279 27.0329
lfingers 7.12502
lthumb 7.47125 56.8809
rfemur -44.2585 11.3805 9.49411
rtibia 50.4344
rfoot -24.177 -13.4466
rtoes -4.36999
lfemur -43.2702 -1.49927 -22.9055
ltibia 45.8234
lfoot -16.5299 2.14859
ltoes -4.70617
105
root -0.0626283 17.7977 -14.9666 17.1113 -0.786039 4.42276
lowerback 27.5287 0.0216176 -2.94125
upperback 4.49591 -0.984521 -1.48805
thorax -10.2065 -0.377681 0.369731
lowerneck -13.9965 -3.2987 -7.93834
upperneck -8.89829 -3.08279 8.0545
head -0.175614 -1.27212 3.95454
rclavicle -1.57785e-015 3.42904e-015
rhumerus -34.7675 0.521897 -77.7266
rradius 27.5556
rwrist 14.2048
rhand -30.7135 1.5312
rfingers 7.12502
rthumb -4.00651 -28.4109
lclavicle -1.57785e-015 3.42904e-015
lhumerus -34.3344 0.14371 76.9856
lradius 29.3396
lwrist 0.502604
lhand -19.0854 27.0479
lfingers 7.12502
lthumb 7.22272 56.9046
rfemur -44.7204 11.1518 9.24025
rtibia 50.928
rfoot -24.4788 -13.4626
rtoes -4.17789
lfemur -43.8215 -1.69418 -23.1177
ltibia 46.2264
lfoot -16.6376 2.02558
ltoes -5.25987
